<?xml version="1.0" encoding="utf-8"?>
<!-- Generator: Adobe Illustrator 14.0.0, SVG Export Plug-In . SVG Version: 6.00 Build 43363)  -->
<!DOCTYPE svg PUBLIC "-//W3C//DTD SVG 1.1//EN" "http://www.w3.org/Graphics/SVG/1.1/DTD/svg11.dtd">
<svg version="1.1" id="Layer_1" xmlns="http://www.w3.org/2000/svg" xmlns:xlink="http://www.w3.org/1999/xlink" x="0px" y="0px"
	 width="612px" height="792px" viewBox="0 0 612 792" enable-background="new 0 0 612 792" xml:space="preserve">
<g>
	<polygon fill-rule="evenodd" clip-rule="evenodd" fill="#FFFFFF" points="209,300 401.756,300 401.756,492.756 209,492.756 
		209,300 	"/>
	<path fill-rule="evenodd" clip-rule="evenodd" fill="#00548E" d="M302.016,473.744l25.586-38.051h10.988v38.051h-7.708V462.1
		h-12.465l-7.872,11.645H302.016L302.016,473.744z M234.608,473.744v-24.766l15.417,24.766h8.201v-38.051h-8.201v23.945
		L235.1,435.693h-8.693v38.051H234.608L234.608,473.744z M279.71,473.744c3.937,0,7.216-2.789,7.216-6.068v-16.893
		c0-3.281-3.28-6.068-7.216-6.068h-12.137c-3.937,0-7.053,2.787-7.053,6.068v16.893c0,3.279,3.116,6.068,7.053,6.068H279.71
		L279.71,473.744z M269.214,468.332c-0.656,0-1.148-0.492-1.148-0.984v-16.072c0-0.492,0.492-0.82,1.148-0.82h9.184
		c0.492,0,0.984,0.328,0.984,0.82v16.072c0,0.492-0.492,0.984-0.984,0.984H269.214L269.214,468.332z M310.053,444.715l-13.45,20.008
		v-20.008h-7.379v29.029h10.004l19.517-29.029H310.053L310.053,444.715z M330.882,456.852v-13.449l-8.856,13.449H330.882
		L330.882,456.852z M354.827,473.744v-5.576h-4.757c-0.656,0-1.147-0.492-1.147-0.984v-16.893h5.904v-5.412h-5.904v-6.232h-8.037
		v29.521c0,3.115,2.952,5.576,6.562,5.576H354.827L354.827,473.744z M373.688,450.127l-10.333,10.004v-9.02
		c0-0.492,0.492-0.984,1.148-0.984H373.688L373.688,450.127z M382.381,449.471c0.328-0.492,0.656-0.984,0.656-1.641
		c0-1.639-1.64-3.115-3.772-3.115h-17.057c-3.608,0-6.561,2.623-6.561,5.576v17.877c0,3.115,2.952,5.576,6.561,5.576h30.506v-38.051
		h-8.037v32.146H363.52L382.381,449.471L382.381,449.471L382.381,449.471z"/>
	<polygon fill-rule="evenodd" clip-rule="evenodd" fill="#00958E" points="273.806,331.875 263.801,345.652 280.038,354.509 
		290.043,340.732 273.806,331.875 	"/>
	<polygon fill-rule="evenodd" clip-rule="evenodd" fill="#00958E" points="296.275,363.202 296.275,363.202 280.038,354.509 
		270.198,368.286 286.435,377.142 296.275,363.202 	"/>
	<polygon fill-rule="evenodd" clip-rule="evenodd" fill="#00958E" points="253.96,359.593 243.957,373.37 260.194,382.063 
		270.198,368.286 253.96,359.593 	"/>
	<path fill-rule="evenodd" clip-rule="evenodd" fill="#00958E" d="M392.878,429.461l-83.153-116.119l-19.682,27.39l16.237,8.692
		l-10.005,13.777l16.237,8.856l-9.841,13.777l-16.237-8.693l-10.005,13.777l-16.236-8.856l-9.841,13.777l-16.237-8.692
		l-9.841,13.777l16.073,8.691l-14.269,19.846H392.878L392.878,429.461z M318.909,394.527l-10.005,13.942l-16.237-8.857
		l10.004-13.776L318.909,394.527L318.909,394.527z"/>
	<polygon fill-rule="evenodd" clip-rule="evenodd" fill="#00958E" points="217.878,378.291 234.116,387.147 243.957,373.37 
		227.883,364.514 217.878,378.291 	"/>
</g>
</svg>
